<svg version="1.1" xmlns="http://www.w3.org/2000/svg" xmlns:xlink="http://www.w3.org/1999/xlink" width="100%" height="100%" viewBox="0,0,256,256"><g fill="#8cc84b" fill-rule="evenodd" stroke="none" stroke-width="1" stroke-linecap="butt" stroke-linejoin="round" stroke-miterlimit="2" stroke-dasharray="" stroke-dashoffset="0" font-family="none" font-weight="none" font-size="none" text-anchor="none" style="mix-blend-mode: normal"><g><g><g transform="translate(0,0.00025) scale(0.5,0.5)"><path d="M255.022,511.998l0.229,0.001h-0.079zM256.828,511.999h-0.079l0.229,-0.001zM254.24,511.994l0.247,0.001h-0.142zM257.655,511.995h-0.142l0.247,-0.001zM253.486,511.988l0.165,0.001l-0.132,-0.001zM258.481,511.988l-0.132,0.001l0.165,-0.001zM259.307,511.979l-0.058,0.001l0.223,-0.003zM252.528,511.977l0.223,0.003l-0.058,-0.001zM260.132,511.967l-0.135,0.002l0.275,-0.004zM251.728,511.965l0.275,0.004l-0.135,-0.002zM260.956,511.953l-0.182,0.003l0.254,-0.005zM250.972,511.951l0.254,0.005l-0.182,-0.003zM250.035,511.932l0.225,0.005l-0.04,-0.001zM261.78,511.936l-0.04,0.001l0.225,-0.005zM249.213,511.911l0.309,0.008l-0.125,-0.003zM262.603,511.916l-0.125,0.003l0.309,-0.008zM263.426,511.894l-0.201,0.006l0.316,-0.009zM248.459,511.891l0.316,0.009l-0.201,-0.006zM247.739,511.869l0.225,0.007l-0.212,-0.007l-0.194,-0.006zM264.248,511.869l-0.212,0.007l0.225,-0.007l0.181,-0.006zM265.069,511.842l-0.112,0.004l0.345,-0.012zM246.698,511.834l0.345,0.012l-0.112,-0.004zM245.949,511.806l0.362,0.013l-0.201,-0.007zM265.89,511.812l-0.201,0.007l0.362,-0.013zM245.214,511.776l0.354,0.015l-0.277,-0.011zM266.709,511.78l-0.277,0.011l0.354,-0.015zM244.184,511.731l0.38,0.017l-0.093,-0.003zM267.529,511.745l-0.093,0.003l0.38,-0.017zM243.445,511.697l0.394,0.018l-0.186,-0.008zM268.347,511.707l-0.186,0.008l0.394,-0.018zM242.717,511.66l0.397,0.02l-0.279,-0.013zM269.165,511.667l-0.279,0.013l0.397,-0.02zM269.983,511.624l-0.362,0.019l0.321,-0.017l0.378,-0.021zM242.058,511.626l0.321,0.017l-0.362,-0.019l-0.337,-0.019zM270.799,511.578l-0.16,0.009l0.406,-0.023zM240.955,511.564l0.406,0.023l-0.16,-0.009zM240.233,511.521l0.405,0.024l-0.253,-0.014zM271.615,511.531l-0.253,0.014l0.405,-0.024zM239.544,511.478l0.365,0.023l-0.34,-0.021l-0.342,-0.022zM272.431,511.48l-0.34,0.021l0.365,-0.023l0.317,-0.02zM273.245,511.427l-0.122,0.008l0.387,-0.026zM238.49,511.409l0.387,0.026l-0.122,-0.008zM237.769,511.359l0.38,0.027l-0.208,-0.014zM274.059,511.372l-0.208,0.014l0.38,-0.027zM237.05,511.308l0.349,0.025l-0.271,-0.019zM274.872,511.314l-0.271,0.019l0.349,-0.025zM236.083,511.235l0.306,0.023l-0.074,-0.005zM275.685,511.253l-0.074,0.005l0.306,-0.023zM276.496,511.19l-0.146,0.011l0.311,-0.025zM235.339,511.176l0.311,0.025l-0.146,-0.011zM234.614,511.117l0.264,0.022l-0.186,-0.015zM277.308,511.124l-0.186,0.015l0.264,-0.022zM233.816,511.05l0.079,0.007l-0.013,-0.001zM278.118,511.056l-0.013,0.001l0.079,-0.007zM278.928,510.985l-0.072,0.006l0.181,-0.016zM232.963,510.975l0.181,0.016l-0.072,-0.006zM232.213,510.907l0.135,0.013l-0.084,-0.008zM279.736,510.912l-0.084,0.008l0.135,-0.013zM216,508.887c-122.319,-19.226 -216,-125.203 -216,-252.887c0,-141.29 114.71,-256 256,-256c141.29,0 256,114.71 256,256c0,127.684 -93.681,233.661 -216,252.887v-178.887h59.65l11.35,-74h-71v-48.021c0,-20.245 9.918,-39.979 41.719,-39.979h32.281v-63c0,0 -29.296,-5 -57.305,-5c-58.476,0 -96.695,35.44 -96.695,99.6v56.4h-65v74h65z"></path></g></g></g></g></svg>