<svg version="1.1" xmlns="http://www.w3.org/2000/svg" xmlns:xlink="http://www.w3.org/1999/xlink" width="512px" height="512px" viewBox="0,0,256,256"><g fill="#8cc84b" fill-rule="nonzero" stroke="none" stroke-width="1" stroke-linecap="butt" stroke-linejoin="miter" stroke-miterlimit="10" stroke-dasharray="" stroke-dashoffset="0" font-family="none" font-weight="none" font-size="none" text-anchor="none" style="mix-blend-mode: normal"><g><g><g transform="scale(0.5,0.5)"><path d="M256,0c-141.385,0 -256,114.615 -256,256c0,141.385 114.615,256 256,256c141.385,0 256,-114.615 256,-256c0,-141.385 -114.615,-256 -256,-256zM385.62,232.382c-27.184,0 -53.634,-8.822 -74,-23.75l-0.162,101.5c-0.03457,38.51134 -23.93713,72.96804 -59.99704,86.48865c-36.05991,13.52062 -76.72423,3.27318 -102.07019,-25.72177c-25.34596,-28.99494 -30.06471,-70.66424 -11.84437,-104.59275c18.22033,-33.92851 55.56339,-53.00972 93.7336,-47.89514v49.845c-18.03397,-5.32773 -37.45316,1.49083 -48.19767,16.9234c-10.74451,15.43257 -10.39985,36.01118 0.85542,51.07529c11.25528,15.06411 30.89191,21.22856 48.73736,15.29991c17.84544,-5.92865 29.88951,-22.61812 29.89289,-41.4226v-200.799h51.275c0,19.03556 7.56191,37.29145 21.02218,50.75153c13.46026,13.46008 31.71627,21.02174 50.75182,21.02147z"></path></g></g></g></g></svg>